<mxfile host="app.diagrams.net" modified="2024-05-29T09:35:40.046Z" agent="Mozilla/5.0 (Windows NT 10.0; Win64; x64) AppleWebKit/537.36 (KHTML, like Gecko) Chrome/125.0.0.0 Safari/537.36 Edg/125.0.0.0" etag="PmR3-ciJdihUcMtx-wA6" version="24.4.9" type="google">
  <diagram name="Page-1" id="2YBvvXClWsGukQMizWep">
    <mxGraphModel grid="1" page="1" gridSize="10" guides="1" tooltips="1" connect="1" arrows="1" fold="1" pageScale="1" pageWidth="850" pageHeight="1100" math="0" shadow="0">
      <root>
        <mxCell id="0" />
        <mxCell id="1" parent="0" />
        <mxCell id="QWxgFlJdILviwnDVb8U5-4" value="User&lt;div style=&quot;font-size: 13px;&quot;&gt;&lt;br style=&quot;font-size: 13px;&quot;&gt;&lt;/div&gt;" style="shape=umlActor;verticalLabelPosition=bottom;verticalAlign=top;html=1;outlineConnect=0;fontSize=13;" vertex="1" parent="1">
          <mxGeometry x="100" y="-1060" width="30" height="60" as="geometry" />
        </mxCell>
        <mxCell id="QWxgFlJdILviwnDVb8U5-5" value="User&lt;div style=&quot;font-size: 13px;&quot;&gt;&lt;br style=&quot;font-size: 13px;&quot;&gt;&lt;/div&gt;" style="shape=umlActor;verticalLabelPosition=bottom;verticalAlign=top;html=1;outlineConnect=0;fontSize=13;" vertex="1" parent="1">
          <mxGeometry x="100" y="-590" width="30" height="60" as="geometry" />
        </mxCell>
        <mxCell id="QWxgFlJdILviwnDVb8U5-6" value="" style="endArrow=none;dashed=1;html=1;rounded=0;entryX=0.5;entryY=0.5;entryDx=0;entryDy=0;entryPerimeter=0;fontSize=13;" edge="1" parent="1" source="QWxgFlJdILviwnDVb8U5-4" target="QWxgFlJdILviwnDVb8U5-5">
          <mxGeometry width="50" height="50" relative="1" as="geometry">
            <mxPoint x="400" y="-740" as="sourcePoint" />
            <mxPoint x="450" y="-790" as="targetPoint" />
          </mxGeometry>
        </mxCell>
        <mxCell id="QWxgFlJdILviwnDVb8U5-7" value="Facebook" style="shape=umlActor;verticalLabelPosition=bottom;verticalAlign=top;html=1;outlineConnect=0;fontSize=13;" vertex="1" parent="1">
          <mxGeometry x="370" y="-1060" width="30" height="60" as="geometry" />
        </mxCell>
        <mxCell id="QWxgFlJdILviwnDVb8U5-8" value="Facebook" style="shape=umlActor;verticalLabelPosition=bottom;verticalAlign=top;html=1;outlineConnect=0;fontSize=13;" vertex="1" parent="1">
          <mxGeometry x="370" y="-590" width="30" height="60" as="geometry" />
        </mxCell>
        <mxCell id="QWxgFlJdILviwnDVb8U5-9" value="Database" style="shape=cylinder3;whiteSpace=wrap;html=1;boundedLbl=1;backgroundOutline=1;size=15;fontSize=13;" vertex="1" parent="1">
          <mxGeometry x="580" y="-1050" width="100" height="80" as="geometry" />
        </mxCell>
        <mxCell id="QWxgFlJdILviwnDVb8U5-10" value="Database" style="shape=cylinder3;whiteSpace=wrap;html=1;boundedLbl=1;backgroundOutline=1;size=15;fontSize=13;" vertex="1" parent="1">
          <mxGeometry x="580" y="-590" width="100" height="80" as="geometry" />
        </mxCell>
        <mxCell id="QWxgFlJdILviwnDVb8U5-13" value="" style="endArrow=none;dashed=1;html=1;rounded=0;entryX=0.5;entryY=0;entryDx=0;entryDy=0;entryPerimeter=0;fontSize=13;" edge="1" parent="1" source="QWxgFlJdILviwnDVb8U5-34" target="QWxgFlJdILviwnDVb8U5-8">
          <mxGeometry width="50" height="50" relative="1" as="geometry">
            <mxPoint x="400" y="-740" as="sourcePoint" />
            <mxPoint x="385" y="-634" as="targetPoint" />
          </mxGeometry>
        </mxCell>
        <mxCell id="QWxgFlJdILviwnDVb8U5-14" value="" style="endArrow=none;dashed=1;html=1;rounded=0;entryX=0.5;entryY=1;entryDx=0;entryDy=0;entryPerimeter=0;exitX=0.5;exitY=0;exitDx=0;exitDy=0;exitPerimeter=0;fontSize=13;" edge="1" parent="1" source="QWxgFlJdILviwnDVb8U5-10" target="QWxgFlJdILviwnDVb8U5-9">
          <mxGeometry width="50" height="50" relative="1" as="geometry">
            <mxPoint x="400" y="-740" as="sourcePoint" />
            <mxPoint x="450" y="-790" as="targetPoint" />
          </mxGeometry>
        </mxCell>
        <mxCell id="QWxgFlJdILviwnDVb8U5-15" value="" style="html=1;points=[[0,0,0,0,5],[0,1,0,0,-5],[1,0,0,0,5],[1,1,0,0,-5]];perimeter=orthogonalPerimeter;outlineConnect=0;targetShapes=umlLifeline;portConstraint=eastwest;newEdgeStyle={&quot;curved&quot;:0,&quot;rounded&quot;:0};fontSize=13;" vertex="1" parent="1">
          <mxGeometry x="380" y="-960" width="10" height="80" as="geometry" />
        </mxCell>
        <mxCell id="QWxgFlJdILviwnDVb8U5-16" value="Open Edit Profile Page" style="html=1;verticalAlign=bottom;endArrow=block;curved=0;rounded=0;entryX=0;entryY=0;entryDx=0;entryDy=5;fontSize=13;" edge="1" parent="1" target="QWxgFlJdILviwnDVb8U5-15">
          <mxGeometry relative="1" as="geometry">
            <mxPoint x="120" y="-955" as="sourcePoint" />
          </mxGeometry>
        </mxCell>
        <mxCell id="QWxgFlJdILviwnDVb8U5-17" value="Return Edit Profile Form" style="html=1;verticalAlign=bottom;endArrow=open;dashed=1;endSize=8;curved=0;rounded=0;exitX=0;exitY=1;exitDx=0;exitDy=-5;fontSize=13;" edge="1" parent="1" source="QWxgFlJdILviwnDVb8U5-15">
          <mxGeometry relative="1" as="geometry">
            <mxPoint x="120" y="-885" as="targetPoint" />
          </mxGeometry>
        </mxCell>
        <mxCell id="QWxgFlJdILviwnDVb8U5-19" value="Fill Edit Profile Form" style="html=1;verticalAlign=bottom;endArrow=block;curved=0;rounded=0;fontSize=13;" edge="1" parent="1">
          <mxGeometry width="80" relative="1" as="geometry">
            <mxPoint x="120" y="-840" as="sourcePoint" />
            <mxPoint x="380" y="-840" as="targetPoint" />
            <mxPoint as="offset" />
          </mxGeometry>
        </mxCell>
        <mxCell id="QWxgFlJdILviwnDVb8U5-30" value="" style="html=1;points=[[0,0,0,0,5],[0,1,0,0,-5],[1,0,0,0,5],[1,1,0,0,-5]];perimeter=orthogonalPerimeter;outlineConnect=0;targetShapes=umlLifeline;portConstraint=eastwest;newEdgeStyle={&quot;curved&quot;:0,&quot;rounded&quot;:0};fontSize=13;" vertex="1" parent="1">
          <mxGeometry x="620" y="-810" width="10" height="120" as="geometry" />
        </mxCell>
        <mxCell id="QWxgFlJdILviwnDVb8U5-31" value="Validate Session" style="html=1;verticalAlign=bottom;endArrow=block;curved=0;rounded=0;entryX=0;entryY=0;entryDx=0;entryDy=5;fontSize=13;" edge="1" parent="1" target="QWxgFlJdILviwnDVb8U5-30">
          <mxGeometry relative="1" as="geometry">
            <mxPoint x="390" y="-805" as="sourcePoint" />
          </mxGeometry>
        </mxCell>
        <mxCell id="QWxgFlJdILviwnDVb8U5-35" value="" style="endArrow=none;dashed=1;html=1;rounded=0;fontSize=13;" edge="1" parent="1" source="QWxgFlJdILviwnDVb8U5-7" target="QWxgFlJdILviwnDVb8U5-34">
          <mxGeometry width="50" height="50" relative="1" as="geometry">
            <mxPoint x="385" y="-1000" as="sourcePoint" />
            <mxPoint x="385" y="-634" as="targetPoint" />
          </mxGeometry>
        </mxCell>
        <mxCell id="QWxgFlJdILviwnDVb8U5-34" value="" style="html=1;points=[[0,0,0,0,5],[0,1,0,0,-5],[1,0,0,0,5],[1,1,0,0,-5]];perimeter=orthogonalPerimeter;outlineConnect=0;targetShapes=umlLifeline;portConstraint=eastwest;newEdgeStyle={&quot;curved&quot;:0,&quot;rounded&quot;:0};fontSize=13;" vertex="1" parent="1">
          <mxGeometry x="380" y="-810" width="10" height="120" as="geometry" />
        </mxCell>
        <mxCell id="QWxgFlJdILviwnDVb8U5-36" value="" style="html=1;points=[[0,0,0,0,5],[0,1,0,0,-5],[1,0,0,0,5],[1,1,0,0,-5]];perimeter=orthogonalPerimeter;outlineConnect=0;targetShapes=umlLifeline;portConstraint=eastwest;newEdgeStyle={&quot;curved&quot;:0,&quot;rounded&quot;:0};fontSize=13;" vertex="1" parent="1">
          <mxGeometry x="390" y="-780" width="10" height="70" as="geometry" />
        </mxCell>
        <mxCell id="QWxgFlJdILviwnDVb8U5-37" value="" style="html=1;points=[[0,0,0,0,5],[0,1,0,0,-5],[1,0,0,0,5],[1,1,0,0,-5]];perimeter=orthogonalPerimeter;outlineConnect=0;targetShapes=umlLifeline;portConstraint=eastwest;newEdgeStyle={&quot;curved&quot;:0,&quot;rounded&quot;:0};fontSize=13;" vertex="1" parent="1">
          <mxGeometry x="610" y="-785" width="10" height="75" as="geometry" />
        </mxCell>
        <mxCell id="QWxgFlJdILviwnDVb8U5-38" value="Session Valid" style="html=1;verticalAlign=bottom;endArrow=open;dashed=1;endSize=8;curved=0;rounded=0;entryX=1;entryY=0;entryDx=0;entryDy=5;entryPerimeter=0;fontSize=13;" edge="1" parent="1" source="QWxgFlJdILviwnDVb8U5-37" target="QWxgFlJdILviwnDVb8U5-36">
          <mxGeometry relative="1" as="geometry">
            <mxPoint x="680" y="-800" as="sourcePoint" />
            <mxPoint x="600" y="-800" as="targetPoint" />
          </mxGeometry>
        </mxCell>
        <mxCell id="QWxgFlJdILviwnDVb8U5-39" value="Update User Data" style="html=1;verticalAlign=bottom;endArrow=block;curved=0;rounded=0;exitX=1;exitY=1;exitDx=0;exitDy=-5;exitPerimeter=0;entryX=0;entryY=1;entryDx=0;entryDy=-5;entryPerimeter=0;fontSize=13;" edge="1" parent="1" source="QWxgFlJdILviwnDVb8U5-36" target="QWxgFlJdILviwnDVb8U5-37">
          <mxGeometry width="80" relative="1" as="geometry">
            <mxPoint x="600" y="-800" as="sourcePoint" />
            <mxPoint x="600" y="-715" as="targetPoint" />
          </mxGeometry>
        </mxCell>
        <mxCell id="QWxgFlJdILviwnDVb8U5-40" value="Data Updated" style="html=1;verticalAlign=bottom;endArrow=open;dashed=1;endSize=8;curved=0;rounded=0;exitX=0;exitY=1;exitDx=0;exitDy=-5;exitPerimeter=0;entryX=1;entryY=1;entryDx=0;entryDy=-5;entryPerimeter=0;fontSize=13;" edge="1" parent="1" source="QWxgFlJdILviwnDVb8U5-30" target="QWxgFlJdILviwnDVb8U5-34">
          <mxGeometry relative="1" as="geometry">
            <mxPoint x="680" y="-800" as="sourcePoint" />
            <mxPoint x="600" y="-800" as="targetPoint" />
          </mxGeometry>
        </mxCell>
        <mxCell id="QWxgFlJdILviwnDVb8U5-41" value="Update Successful" style="html=1;verticalAlign=bottom;endArrow=block;curved=0;rounded=0;fontSize=13;" edge="1" parent="1">
          <mxGeometry width="80" relative="1" as="geometry">
            <mxPoint x="390" y="-670" as="sourcePoint" />
            <mxPoint x="110" y="-670" as="targetPoint" />
          </mxGeometry>
        </mxCell>
        <mxCell id="QWxgFlJdILviwnDVb8U5-42" value="Show Update Success Message" style="html=1;verticalAlign=bottom;endArrow=block;curved=0;rounded=0;fontSize=13;" edge="1" parent="1">
          <mxGeometry width="80" relative="1" as="geometry">
            <mxPoint x="120" y="-610" as="sourcePoint" />
            <mxPoint x="390" y="-610" as="targetPoint" />
          </mxGeometry>
        </mxCell>
      </root>
    </mxGraphModel>
  </diagram>
</mxfile>
